<?xml version="1.0" standalone="no"?>
<!DOCTYPE svg PUBLIC "-//W3C//DTD SVG 20010904//EN"
 "http://www.w3.org/TR/2001/REC-SVG-20010904/DTD/svg10.dtd">
<svg version="1.0" xmlns="http://www.w3.org/2000/svg"
 width="260.000000pt" height="260.000000pt" viewBox="0 0 260.000000 260.000000"
 preserveAspectRatio="xMidYMid meet">
<metadata>
Created by potrace 1.14, written by Peter Selinger 2001-2017
</metadata>
<g transform="translate(0.000000,260.000000) scale(0.100000,-0.100000)"
fill="#000000" stroke="none">
<path d="M1039 2596 c-2 -2 -44 -6 -94 -10 -104 -7 -126 -11 -258 -37 -194
-39 -323 -103 -434 -215 -137 -138 -210 -343 -240 -674 -16 -167 -7 -798 12
-830 1 -3 5 -28 9 -55 11 -100 57 -252 103 -345 66 -133 160 -227 293 -293 92
-45 240 -90 338 -102 26 -4 54 -8 62 -10 99 -25 896 -26 939 -1 3 2 29 6 56
10 100 11 252 57 341 102 202 100 316 259 378 526 41 178 51 295 51 633 0 234
-9 457 -19 475 -2 3 -7 29 -10 59 -4 29 -8 56 -10 60 -2 3 -7 22 -10 42 -3 20
-17 72 -31 115 -83 260 -269 426 -552 493 -88 21 -83 20 -268 46 -43 6 -650
16 -656 11z m671 -290 c19 -3 55 -8 80 -11 185 -24 333 -105 410 -225 32 -51
74 -159 84 -221 3 -19 8 -43 10 -55 15 -74 21 -221 20 -524 0 -309 -2 -358
-22 -468 -30 -170 -68 -258 -146 -337 -99 -100 -210 -143 -446 -170 -177 -20
-599 -20 -805 0 -38 4 -73 9 -76 10 -3 2 -26 6 -51 9 -66 8 -181 49 -238 86
-137 88 -195 209 -236 490 -10 70 -13 675 -4 765 13 130 20 177 37 240 68 259
242 383 578 410 44 4 82 8 84 10 6 6 683 -3 721 -9z"/>
<path d="M1264 1769 c-246 -32 -434 -240 -436 -481 -1 -124 27 -212 96 -305
58 -77 88 -104 167 -147 201 -110 449 -67 602 104 177 196 176 480 -1 672
-110 119 -272 178 -428 157z m151 -291 c113 -58 161 -179 113 -290 -50 -117
-190 -168 -303 -110 -55 28 -85 63 -105 123 -42 124 19 246 142 284 45 14 118
10 153 -7z"/>
</g>
</svg>
