<svg width="208" height="47" viewBox="0 0 208 47" fill="none" xmlns="http://www.w3.org/2000/svg">
<path fill-rule="evenodd" clip-rule="evenodd" d="M23.997 32.718C19.0985 32.718 15.0319 28.6513 15.0319 23.7529C15.0319 18.8544 19.0061 14.7878 23.997 14.7878C28.8955 14.7878 32.9621 18.762 32.9621 23.7529C32.9621 28.6513 28.8955 32.718 23.997 32.718ZM23.997 19.7787C21.7788 19.7787 20.0228 21.5347 20.0228 23.7529C20.0228 25.971 21.7788 27.7271 23.997 27.7271C26.2152 27.7271 27.9712 25.971 27.9712 23.7529C27.9712 21.5347 26.2152 19.7787 23.997 19.7787Z" fill="#61B2AA"/>
<path fill-rule="evenodd" clip-rule="evenodd" d="M0.244141 23.2907C0.244141 42.0527 4.77289 46.5815 23.5349 46.5815C42.2969 46.5815 46.8256 42.0527 46.8256 23.2907C46.8256 4.52876 42.2969 0 23.5349 0C4.77289 0 0.244141 4.52876 0.244141 23.2907ZM5.23501 23.2907C5.23501 7.39389 7.63803 4.99088 23.5349 4.99088C39.4317 4.99088 41.8348 7.39389 41.8348 23.2907C41.8348 39.1876 39.4317 41.5906 23.5349 41.5906C7.63803 41.5906 5.23501 39.1876 5.23501 23.2907Z" fill="#61B2AA"/>
<path fill-rule="evenodd" clip-rule="evenodd" d="M62.1679 33.8278V7.7643H66.1422V16.8218C66.974 15.99 67.9906 15.4355 69.0073 15.1582C70.1164 14.7885 71.2254 14.6961 72.3345 14.6961C73.8133 14.6961 75.1072 14.9733 76.3087 15.4355C77.5103 15.8976 78.4345 16.637 79.2663 17.5612C80.0981 18.4854 80.7451 19.5021 81.1148 20.7036C81.5769 21.9051 81.7618 23.199 81.7618 24.493C81.7618 25.8793 81.5769 27.1733 81.1148 28.3748C80.6527 29.5763 80.0981 30.5929 79.2663 31.5172C78.4345 32.4414 77.4178 33.0884 76.3087 33.6429C75.1072 34.105 73.8133 34.3823 72.3345 34.3823C71.133 34.3823 70.0239 34.1974 68.9149 33.8278C67.8058 33.4581 66.8816 32.9035 65.9573 32.0717V33.8278H62.1679ZM77.7875 24.5854C77.7875 23.6612 77.6951 22.8294 77.4178 22.09C77.1406 21.3506 76.7709 20.7036 76.3087 20.1491C75.8466 19.5945 75.1997 19.1324 74.5527 18.8551C73.8133 18.4854 73.0739 18.393 72.0573 18.393C71.133 18.393 70.3012 18.5779 69.5618 18.8551C68.8225 19.1324 68.1755 19.5945 67.7134 20.1491C67.2512 20.7036 66.7891 21.3506 66.5119 22.09C66.2346 22.8294 66.1422 23.6612 66.1422 24.493C66.1422 25.3248 66.2346 26.1566 66.5119 26.9884C66.7891 27.7278 67.1588 28.3748 67.7134 28.9293C68.2679 29.4838 68.8225 29.946 69.5618 30.2232C70.3012 30.5005 71.133 30.6854 72.0573 30.6854C72.9815 30.6854 73.8133 30.5005 74.5527 30.2232C75.2921 29.8535 75.8466 29.4838 76.3087 28.9293C76.7709 28.3748 77.1406 27.7278 77.4178 26.9884C77.6951 26.249 77.7875 25.4172 77.7875 24.5854Z" fill="#61B2AA"/>
<path d="M100.524 32.1641C99.6919 32.9035 98.8601 33.3656 97.8435 33.7353C96.8268 34.105 95.8101 34.1974 94.7011 34.1974C93.4995 34.1974 92.3905 34.0126 91.3738 33.6429C90.3571 33.2732 89.5253 32.7187 88.7859 32.0717C88.0465 31.3323 87.5844 30.5929 87.1223 29.5763C86.7526 28.5596 86.5678 27.543 86.5678 26.3414V15.1582H90.542V26.249C90.542 29.1142 92.0208 30.5929 94.9783 30.5929C95.9026 30.5929 96.7344 30.4081 97.3813 30.1308C98.0283 29.8535 98.5828 29.3914 99.045 28.8369C99.5071 28.2823 99.7844 27.6354 100.062 26.896C100.246 26.1566 100.431 25.3248 100.431 24.493V15.1582H104.406V33.9202H100.524V32.1641Z" fill="#61B2AA"/>
<path d="M126.864 17.9309L115.404 30.2232H127.142V33.8278H109.489V30.9626L120.949 18.6703H109.766V15.0658H126.864V17.9309Z" fill="#61B2AA"/>
<path d="M148.307 17.9309L136.846 30.2232H148.584V33.8278H130.931V30.9626L142.392 18.6703H131.208V15.0658H148.307V17.9309Z" fill="#61B2AA"/>
<path d="M179.731 18.7627H173.446V33.9202H169.287V18.7627H163.372V15.1582H169.287C169.287 13.4946 169.472 12.2006 169.841 11.2764C170.211 10.2597 170.766 9.52035 171.505 8.96581C172.244 8.41127 173.169 8.134 174.278 7.94915C175.387 7.7643 176.681 7.67188 178.16 7.67188H179.916V11.3688H177.328C176.404 11.3688 175.757 11.3688 175.202 11.4612C174.74 11.5537 174.278 11.7385 174 11.9234C173.723 12.2006 173.631 12.5703 173.538 13.0324C173.446 13.4946 173.446 14.234 173.446 15.0658H179.731V18.7627Z" fill="#61B2AA"/>
<path d="M185.646 13.587C184.814 13.587 184.167 13.3097 183.613 12.8476C183.058 12.2931 182.781 11.6461 182.781 10.8143C182.781 9.98247 183.058 9.3355 183.613 8.87339C184.167 8.31885 184.906 8.04158 185.646 8.04158C186.478 8.04158 187.125 8.31885 187.679 8.87339C188.234 9.42793 188.511 10.0749 188.511 10.8143C188.511 11.6461 188.234 12.2931 187.679 12.8476C187.125 13.4021 186.385 13.587 185.646 13.587Z" fill="#61B2AA"/>
<path d="M183.613 15.1582H187.587V33.9202H183.613V15.1582Z" fill="#61B2AA"/>
<path d="M207.088 18.7627H201.173V27.6354C201.173 28.0051 201.173 28.2823 201.265 28.652C201.358 29.2066 201.45 29.5763 201.543 29.6687C201.728 29.8535 202.005 29.946 202.559 30.0384C203.299 30.1308 204.038 30.1308 204.87 30.1308H207.088V33.8278H204.778C203.391 33.8278 202.19 33.7353 201.265 33.5505C200.249 33.3656 199.509 32.9959 198.862 32.5338C198.215 32.0717 197.753 31.3323 197.476 30.4081C197.199 29.4839 197.106 28.2823 197.106 26.896V18.6703H191.561V15.0658H197.106V9.05823H201.173V15.2506H207.088V18.7627Z" fill="#61B2AA"/>
</svg>
